<?xml version="1.0" standalone="no"?>
<!DOCTYPE svg PUBLIC "-//W3C//DTD SVG 20010904//EN"
 "http://www.w3.org/TR/2001/REC-SVG-20010904/DTD/svg10.dtd">
<svg version="1.0" xmlns="http://www.w3.org/2000/svg"
 width="700.000000pt" height="700.000000pt" viewBox="0 0 700.000000 700.000000"
 preserveAspectRatio="xMidYMid meet">
<metadata>
Created by potrace 1.14, written by Peter Selinger 2001-2017
</metadata>
<g transform="translate(0.000000,700.000000) scale(0.100000,-0.100000)"
fill="#000000" stroke="none">
<path d="M3278 6996 c-1 -2 -41 -6 -88 -10 -81 -6 -116 -10 -185 -21 -16 -3
-48 -7 -70 -10 -22 -3 -62 -10 -90 -16 -27 -6 -61 -13 -75 -15 -308 -59 -712
-216 -1025 -397 -103 -60 -289 -180 -305 -197 -3 -3 -41 -32 -84 -65 -136
-103 -355 -307 -481 -450 -220 -248 -442 -593 -569 -885 -16 -36 -36 -83 -46
-105 -49 -113 -137 -384 -156 -478 -2 -10 -6 -27 -9 -37 -3 -10 -8 -29 -10
-42 -3 -13 -11 -57 -20 -98 -22 -115 -30 -160 -41 -255 -26 -230 -26 -667 1
-826 2 -13 6 -46 9 -74 47 -409 239 -952 466 -1318 30 -48 60 -95 65 -105 22
-40 128 -184 202 -278 415 -521 963 -906 1603 -1129 100 -34 370 -108 435
-118 17 -3 57 -10 90 -16 106 -19 119 -21 170 -26 28 -3 68 -8 90 -11 66 -10
565 -12 645 -4 190 20 256 30 406 59 176 34 434 113 623 191 568 234 1049 600
1437 1096 43 55 86 111 94 124 8 12 26 39 40 59 37 53 108 167 147 236 50 89
176 351 202 420 13 33 27 71 33 85 73 177 168 567 193 795 4 33 9 74 12 90 2
17 6 143 8 280 3 249 -2 353 -30 550 -1 11 -6 43 -10 70 -10 77 -63 310 -91
405 -72 245 -131 391 -246 618 -213 418 -510 792 -873 1097 -97 82 -346 265
-360 265 -2 0 -36 20 -75 45 -91 60 -326 179 -465 237 -240 100 -544 187 -785
223 -25 4 -54 9 -65 11 -10 2 -47 6 -81 10 -33 3 -74 8 -90 10 -33 5 -540 14
-546 10z"/>
</g>
</svg>
