<svg id="Layer_1" data-name="Layer 1" xmlns="http://www.w3.org/2000/svg" xmlns:xlink="http://www.w3.org/1999/xlink" viewBox="0 0 469.94 469.94"><defs><style>.cls-1{fill:none;}.cls-2{fill:#0c1746;}.cls-3{clip-path:url(#clip-path);}.cls-4{fill:#ecf0f1;}.cls-5{fill:#e0a417;}.cls-6{fill:#f7ae1c;}.cls-7{fill:#bdc3c7;}.cls-8{fill:#fff;}.cls-9{fill:#ffc34a;}.cls-10{fill:#203e72;}.cls-11{fill:#d6921a;}</style><clipPath id="clip-path"><circle class="cls-1" cx="234.97" cy="234.97" r="234.97"/></clipPath></defs><path class="cls-2" d="M235,0c129.76,0,235,105.2,235,235s-105.21,235-235,235S0,364.74,0,235,105.2,0,235,0Z"/><g class="cls-3"><path class="cls-4" d="M277.43,240.36V131.27h-85V240.36C124,259,73.83,321.52,74.38,395.63,75,483.87,148.08,555,236.32,554.21c88-.75,159.16-72,159.16-159.77C395.48,320.84,345.47,258.91,277.43,240.36Z"/><path class="cls-5" d="M346.06,329.27H123.88a131.58,131.58,0,1,0,222.18,0Z"/><path class="cls-6" d="M154.65,301.72c44.36-21.24,116.28-21.24,160.64,0s44.37,55.7,0,76.94-116.28,21.25-160.64,0S110.29,323,154.65,301.72Z"/><path class="cls-7" d="M192.51,121.27h83.92l.29,38.47-2.64,1.41c-22,11-57.24,11-79.23,0l-2.42-1.29Z"/><path class="cls-8" d="M195.07,111.58c22-11,57.73-11,79.76,0s22,28.87,0,39.88-57.74,11-79.76,0S173.05,122.59,195.07,111.58Z"/><path class="cls-7" d="M215,124.91c11-3.66,28.78-3.66,39.77,0s11,9.63,0,13.3-28.79,3.67-39.77,0S204,128.58,215,124.91Z"/><path class="cls-9" d="M195,329.13a21.16,21.16,0,0,0-21.14,21.09c0,1.82,2,3.63,6.17,5,8.23,2.76,21.59,2.76,29.83,0,4.11-1.36,6.16-3.17,6.17-5h.12A21.15,21.15,0,0,0,195,329.13Zm54-18.89a14.07,14.07,0,0,0-14.1,14c0,1.21,1.34,2.42,4.11,3.34a36.72,36.72,0,0,0,19.89,0c2.73-.91,4.11-2.1,4.11-3.3h.08A14.07,14.07,0,0,0,249.07,310.24Zm37.59,28a14.07,14.07,0,0,0-14.09,14c0,1.21,1.33,2.42,4.11,3.34a36.68,36.68,0,0,0,19.88,0c2.74-.91,4.11-2.1,4.11-3.3h.09A14.08,14.08,0,0,0,286.66,338.24Z"/><path class="cls-10" d="M206.77,47a18.8,18.8,0,1,0,18.8,18.8A18.8,18.8,0,0,0,206.77,47Zm0,28.2a9.4,9.4,0,1,1,9.41-9.4A9.4,9.4,0,0,1,206.77,75.19Zm7-98.69a25.85,25.85,0,1,0,0,51.7h0a25.85,25.85,0,0,0,0-51.7Zm0,42.3a16.45,16.45,0,0,1-.56-32.89h.56a16.45,16.45,0,0,1,0,32.89Zm51.69,4.7a25.85,25.85,0,0,0,0,51.69h0a25.85,25.85,0,1,0,0-51.69Zm0,42.29A16.45,16.45,0,1,1,282,49.34,16.44,16.44,0,0,1,265.51,65.79Z"/><path class="cls-11" d="M259,326.39a36.72,36.72,0,0,1-19.89,0c-2.52-.83-3.82-1.91-4-3l-.09.85c0,1.21,1.34,2.42,4.11,3.34a36.72,36.72,0,0,0,19.89,0c2.73-.91,4.11-2.1,4.11-3.3h.08l-.1-1.07C263,324.36,261.63,325.51,259,326.39Zm-49.09,27.68c-8.24,2.76-21.6,2.76-29.83,0-3.91-1.31-5.88-3-6.08-4.7l-.09.84c0,1.83,2,3.64,6.17,5,8.23,2.75,21.59,2.75,29.83,0,4.11-1.38,6.16-3.18,6.17-5h.12l-.12-1.17C216,350.9,214,352.7,209.88,354.07Zm86.68.32a36.68,36.68,0,0,1-19.88,0c-2.52-.84-3.82-1.91-4-3l-.09.85c0,1.21,1.33,2.42,4.11,3.34a36.68,36.68,0,0,0,19.88,0c2.74-.91,4.11-2.1,4.11-3.3h.09l-.11-1.07C300.57,352.35,299.23,353.51,296.56,354.39Z"/></g></svg>