<svg id="Layer_1" data-name="Layer 1" xmlns="http://www.w3.org/2000/svg" xmlns:xlink="http://www.w3.org/1999/xlink" viewBox="0 0 1000 1000"><defs><style>.cls-1{fill:none;}.cls-2{fill:#0c1746;}.cls-3{clip-path:url(#clip-path);}.cls-4{fill:#ecf0f1;}.cls-5{fill:#e0a417;}.cls-6{fill:#f7ae1c;}.cls-7{fill:#bdc3c7;}.cls-8{fill:#fff;}.cls-9{fill:#ffc34a;}.cls-10{fill:#203e72;}.cls-11{fill:#d6921a;}</style><clipPath id="clip-path"><circle class="cls-1" cx="500" cy="500" r="234.97"/></clipPath></defs><path class="cls-2" d="M500,265c129.76,0,235,105.2,235,235S629.76,735,500,735,265,629.77,265,500,370.23,265,500,265Z"/><g class="cls-3"><path class="cls-4" d="M542.46,505.39V396.3h-85V505.39c-68.41,18.65-118.6,81.16-118,155.27.65,88.24,73.7,159.33,161.94,158.58,88-.74,159.17-72,159.17-159.77C660.52,585.88,610.5,523.94,542.46,505.39Z"/><path class="cls-5" d="M611.09,594.3H388.92a131.58,131.58,0,1,0,222.17,0Z"/><path class="cls-6" d="M419.68,566.75c44.36-21.24,116.28-21.24,160.65,0s44.36,55.7,0,76.94-116.28,21.25-160.65,0S375.32,588,419.68,566.75Z"/><path class="cls-7" d="M457.54,386.3h83.92l.29,38.47-2.64,1.41c-22,11-57.24,11-79.22,0l-2.43-1.28Z"/><path class="cls-8" d="M460.1,376.61c22-11,57.73-11,79.76,0s22,28.87,0,39.88-57.74,11-79.76,0S438.08,387.62,460.1,376.61Z"/><path class="cls-7" d="M480,390c11-3.67,28.79-3.67,39.77,0s11,9.62,0,13.29-28.79,3.67-39.77,0S469.05,393.62,480,390Z"/><path class="cls-9" d="M460.06,594.17a21.15,21.15,0,0,0-21.15,21.08c0,1.82,2,3.64,6.17,5,8.24,2.75,21.59,2.75,29.83,0,4.11-1.37,6.17-3.18,6.18-5h.11A21.14,21.14,0,0,0,460.06,594.17Zm54-18.89a14.07,14.07,0,0,0-14.1,14c0,1.2,1.34,2.42,4.11,3.33a36.72,36.72,0,0,0,19.89,0c2.73-.9,4.11-2.1,4.11-3.3h.09A14.07,14.07,0,0,0,514.1,575.28Zm37.59,28a14.06,14.06,0,0,0-14.09,14c0,1.21,1.33,2.42,4.11,3.34a36.68,36.68,0,0,0,19.88,0c2.74-.9,4.11-2.1,4.12-3.3h.08A14.06,14.06,0,0,0,551.69,603.28Z"/><path class="cls-10" d="M471.8,312a18.8,18.8,0,1,0,18.8,18.79A18.79,18.79,0,0,0,471.8,312Zm0,28.19a9.4,9.4,0,1,1,9.41-9.4A9.39,9.39,0,0,1,471.8,340.22Zm7.05-98.69a25.85,25.85,0,0,0,0,51.7h0a25.85,25.85,0,0,0,0-51.7Zm0,42.3a16.45,16.45,0,0,1-.56-32.89h.56a16.45,16.45,0,0,1,0,32.89Zm51.7,4.7a25.85,25.85,0,1,0,0,51.7h0a25.85,25.85,0,0,0,0-51.7Zm0,42.29A16.45,16.45,0,1,1,547,314.38,16.44,16.44,0,0,1,530.55,330.82Z"/><path class="cls-11" d="M524,591.42a36.52,36.52,0,0,1-19.89,0c-2.52-.83-3.81-1.9-4-3l-.09.85c0,1.2,1.34,2.42,4.11,3.33a36.72,36.72,0,0,0,19.89,0c2.73-.9,4.11-2.1,4.11-3.3h.09l-.11-1.07C528,589.39,526.66,590.54,524,591.42Zm-49.09,27.69c-8.24,2.75-21.59,2.75-29.83,0-3.91-1.32-5.88-3-6.08-4.71l-.09.84c0,1.83,2,3.65,6.17,5,8.24,2.75,21.59,2.75,29.83,0,4.11-1.38,6.17-3.18,6.18-5h.11l-.11-1.17C481.07,615.93,479,617.73,474.91,619.11Zm86.68.31a36.49,36.49,0,0,1-19.88,0c-2.52-.84-3.81-1.9-4-3l-.09.85c0,1.21,1.33,2.42,4.11,3.34a36.68,36.68,0,0,0,19.88,0c2.74-.9,4.11-2.1,4.12-3.3h.08l-.11-1.07C565.6,617.38,564.26,618.54,561.59,619.42Z"/></g></svg>