<svg id="Layer_1" data-name="Layer 1" xmlns="http://www.w3.org/2000/svg" xmlns:xlink="http://www.w3.org/1999/xlink"
    viewBox="0 0 693.51 230.74">
    <defs>
        <style>
            .cls-1 {
                fill: none;
            }

            .cls-11,
            .cls-2,
            .cls-8 {
                fill: #fff;
            }

            .cls-2 {
                opacity: 0.05;
            }

            .cls-3 {
                clip-path: url(#clip-path);
            }

            .cls-4 {
                fill: #ecf0f1;
            }

            .cls-5 {
                fill: #e0a417;
            }

            .cls-6 {
                fill: #f7ae1c;
            }

            .cls-7 {
                fill: #bdc3c7;
            }

            .cls-9 {
                fill: #ffc34a;
            }

            .cls-10 {
                fill: #d6921a;
            }

            .cls-11 {
                opacity: 0.2;
            }
        </style>
        <clipPath id="clip-path">
            <circle class="cls-1" cx="115.37" cy="115.37" r="115.37" />
        </clipPath>
    </defs>
    <path class="cls-2" d="M115.37,0A115.37,115.37,0,1,1,0,115.37,115.37,115.37,0,0,1,115.37,0Z" />
    <g class="cls-3">
        <path class="cls-4"
            d="M136.22,118V64.46H94.48V118a78.53,78.53,0,0,0-58,76.24c.32,43.32,36.19,78.23,79.52,77.86s78.15-35.35,78.15-78.45A78.54,78.54,0,0,0,136.22,118Z" />
        <path class="cls-5" d="M169.92,161.68H60.83a64.61,64.61,0,1,0,109.09,0Z" />
        <path class="cls-6"
            d="M75.93,148.15c21.78-10.43,57.1-10.43,78.88,0s21.78,27.35,0,37.78-57.09,10.43-78.88,0S54.15,158.58,75.93,148.15Z" />
        <path class="cls-7" d="M94.52,59.55h41.21l.14,18.88-1.29.7c-10.8,5.41-28.11,5.41-38.91,0l-1.19-.64Z" />
        <path class="cls-8"
            d="M95.78,54.79c10.82-5.41,28.35-5.41,39.17,0S145.76,69,135,74.37s-28.36,5.4-39.17,0S85,60.19,95.78,54.79Z" />
        <path class="cls-7"
            d="M105.56,61.33a36,36,0,0,1,19.53,0c5.39,1.81,5.39,4.73,0,6.53a36,36,0,0,1-19.53,0C100.17,66.06,100.17,63.14,105.56,61.33Z" />
        <path class="cls-9"
            d="M95.76,161.61A10.38,10.38,0,0,0,85.38,172c0,.89,1,1.78,3,2.47a27,27,0,0,0,14.65,0c2-.67,3-1.56,3-2.44h.06A10.38,10.38,0,0,0,95.76,161.61Zm26.53-9.28a6.91,6.91,0,0,0-6.92,6.87c0,.59.66,1.19,2,1.64a18,18,0,0,0,9.77,0c1.34-.45,2-1,2-1.62h.05A6.91,6.91,0,0,0,122.29,152.33Zm18.46,13.75a6.91,6.91,0,0,0-6.92,6.87c0,.59.66,1.19,2,1.64a18,18,0,0,0,9.76,0c1.35-.45,2-1,2-1.62h.05A6.91,6.91,0,0,0,140.75,166.08Z" />
        <path class="cls-10"
            d="M127.16,160.26a18,18,0,0,1-9.77,0c-1.24-.41-1.87-.94-2-1.48l0,.42c0,.59.66,1.19,2,1.64a18,18,0,0,0,9.77,0c1.34-.45,2-1,2-1.62h.05l-.06-.53C129.12,159.26,128.46,159.83,127.16,160.26Zm-24.11,13.59a26.81,26.81,0,0,1-14.65,0c-1.91-.64-2.88-1.47-3-2.31l0,.42c0,.89,1,1.78,3,2.47a27,27,0,0,0,14.65,0c2-.68,3-1.56,3-2.44h.06l-.06-.58C106.08,172.29,105.07,173.18,103.05,173.85Zm42.56.16a18,18,0,0,1-9.76,0c-1.23-.41-1.87-.94-2-1.48l0,.42c0,.59.66,1.19,2,1.64a18,18,0,0,0,9.76,0c1.35-.45,2-1,2-1.62h.05l-.06-.53C147.58,173,146.92,173.58,145.61,174Z" />
    </g>
    <path class="cls-11"
        d="M103.94,29.77a6.81,6.81,0,1,0,6.81,6.81A6.81,6.81,0,0,0,103.94,29.77Zm0,10.21a3.41,3.41,0,1,1,3.41-3.4A3.39,3.39,0,0,1,103.94,40Zm2.55-35.75a9.37,9.37,0,0,0,0,18.73h0a9.37,9.37,0,1,0,0-18.73Zm0,15.32a6,6,0,1,1-.2-11.91h.2a6,6,0,0,1,0,11.91Zm18.73,1.71a9.36,9.36,0,0,0,0,18.72h0a9.36,9.36,0,1,0,0-18.72Zm0,15.32a6,6,0,1,1,6-6A6,6,0,0,1,125.22,36.58Z" />
    <path class="cls-5"
        d="M329.38,173.73c-4.35,1.94-12.57,3.55-21.92,3.55-25.46,0-41.74-15.47-41.74-40.3,0-23,15.79-41.9,45.13-41.9a56.7,56.7,0,0,1,18.7,3.06l-3.87,18.21c-2.9-1.29-7.26-2.42-13.7-2.42-12.9,0-21.28,9.19-21.12,22.09,0,14.5,9.67,22.08,21.6,22.08a37.77,37.77,0,0,0,14-2.42Z" />
    <path class="cls-5"
        d="M342.76,154.23c4.52,2.74,13.87,6,21.12,6,7.41,0,10.48-2.57,10.48-6.6s-2.42-6-11.61-9c-16.28-5.48-22.56-14.35-22.4-23.69,0-14.67,12.57-25.79,32.07-25.79,9.19,0,17.41,2.09,22.25,4.51l-4.36,16.92A38.7,38.7,0,0,0,373.23,112c-6,0-9.35,2.42-9.35,6.45,0,3.7,3.06,5.64,12.73,9,15,5.16,21.28,12.74,21.44,24.34,0,14.67-11.6,25.47-34.17,25.47-10.32,0-19.5-2.26-25.47-5.48Z" />
    <path class="cls-5"
        d="M412.72,154.23c4.51,2.74,13.86,6,21.12,6,7.41,0,10.47-2.57,10.47-6.6s-2.42-6-11.6-9c-16.28-5.48-22.57-14.35-22.41-23.69,0-14.67,12.58-25.79,32.08-25.79,9.19,0,17.41,2.09,22.24,4.51l-4.35,16.92A38.78,38.78,0,0,0,443.18,112c-6,0-9.34,2.42-9.34,6.45,0,3.7,3.06,5.64,12.73,9,15,5.16,21.28,12.74,21.44,24.34,0,14.67-11.61,25.47-34.17,25.47-10.32,0-19.51-2.26-25.47-5.48Z" />
    <path class="cls-8" d="M482.84,61.23h24.5V175.67h-24.5Z" />
    <path class="cls-8"
        d="M572,175.67l-1.45-7.9H570c-5.16,6.29-13.22,9.67-22.57,9.67-16,0-25.46-11.6-25.46-24.18,0-20.47,18.37-30.3,46.26-30.14V122c0-4.19-2.26-10.15-14.35-10.15a44.37,44.37,0,0,0-21.76,6L527.65,102c5.48-3.07,16.28-6.93,30.62-6.93,26.28,0,34.66,15.47,34.66,34v27.4c0,7.57.32,14.83,1.13,19.18Zm-2.9-37.24c-12.89-.16-22.89,2.91-22.89,12.42,0,6.28,4.2,9.34,9.68,9.34a13.39,13.39,0,0,0,12.73-9,17.69,17.69,0,0,0,.48-4.19Z" />
    <path class="cls-8"
        d="M611.63,175.67c.32-5.16.64-14.67.64-23.54V61.23h24.5v45h.33C641.77,99.43,650,95.08,661,95.08c18.86,0,32.72,15.63,32.56,39.81,0,28.37-18,42.55-36.1,42.55-9.19,0-18.06-3.38-23.7-12.73h-.32l-1,11Zm25.14-33.53a18.08,18.08,0,0,0,.49,4.35A14.83,14.83,0,0,0,651.6,158.1c10.48,0,16.93-8.06,16.93-22.24,0-12.25-5.48-21.93-16.93-21.93-6.6,0-12.73,5-14.34,12.09a20.53,20.53,0,0,0-.49,4.52Z" />
</svg>