<svg id="Layer_1" data-name="Layer 1" xmlns="http://www.w3.org/2000/svg" xmlns:xlink="http://www.w3.org/1999/xlink" viewBox="0 0 1000 1000"><defs><style>.cls-1{fill:none;}.cls-2{fill:#0c1746;}.cls-3{clip-path:url(#clip-path);}.cls-4{fill:#ecf0f1;}.cls-5{fill:#e0a417;}.cls-6{fill:#f7ae1c;}.cls-7{fill:#bdc3c7;}.cls-8{fill:#fff;}.cls-9{fill:#ffc34a;}.cls-10{fill:#d6921a;}.cls-11{fill:#203e72;}.cls-12{font-size:12px;font-family:MyriadPro-Regular, Myriad Pro;}.cls-13{fill:#010825;}</style><clipPath id="clip-path"><circle class="cls-1" cx="275.08" cy="494.14" r="115.37"/></clipPath></defs><path class="cls-2" d="M275.08,378.77A115.37,115.37,0,1,1,159.71,494.14,115.37,115.37,0,0,1,275.08,378.77Z"/><g class="cls-3"><path class="cls-4" d="M295.93,496.79V443.22H254.19v53.57a78.51,78.51,0,0,0-58,76.24c.31,43.32,36.19,78.22,79.51,77.86s78.15-35.35,78.15-78.45A78.52,78.52,0,0,0,295.93,496.79Z"/><path class="cls-5" d="M329.62,540.44H220.53a64.61,64.61,0,1,0,109.09,0Z"/><path class="cls-6" d="M235.64,526.92c21.78-10.44,57.09-10.44,78.88,0s21.78,27.34,0,37.77-57.1,10.43-78.88,0S213.86,537.35,235.64,526.92Z"/><path class="cls-7" d="M254.23,438.31h41.2l.15,18.89-1.3.69c-10.8,5.41-28.11,5.41-38.9,0l-1.19-.63Z"/><path class="cls-8" d="M255.49,433.55c10.81-5.4,28.34-5.4,39.16,0s10.81,14.18,0,19.58-28.35,5.41-39.16,0S244.67,439,255.49,433.55Z"/><path class="cls-7" d="M265.27,440.1a36,36,0,0,1,19.53,0c5.39,1.8,5.39,4.73,0,6.53a36,36,0,0,1-19.53,0C259.88,444.83,259.88,441.9,265.27,440.1Z"/><path class="cls-9" d="M255.46,540.37a10.39,10.39,0,0,0-10.38,10.36c0,.89,1,1.78,3,2.46a26.81,26.81,0,0,0,14.65,0c2-.67,3-1.55,3-2.44h.06A10.39,10.39,0,0,0,255.46,540.37ZM282,531.1a6.9,6.9,0,0,0-6.92,6.87c0,.59.65,1.19,2,1.63a18,18,0,0,0,9.76,0c1.34-.44,2-1,2-1.61h0A6.9,6.9,0,0,0,282,531.1Zm18.46,13.75a6.9,6.9,0,0,0-6.92,6.86c0,.6.65,1.19,2,1.64a18,18,0,0,0,9.76,0c1.34-.44,2-1,2-1.61h0A6.9,6.9,0,0,0,300.46,544.85Z"/><path class="cls-10" d="M286.86,539a18,18,0,0,1-9.76,0c-1.24-.41-1.88-.94-2-1.48l0,.42c0,.59.65,1.19,2,1.63a18,18,0,0,0,9.76,0c1.34-.44,2-1,2-1.61h0l-.05-.53C288.83,538,288.17,538.59,286.86,539Zm-24.1,13.59a27,27,0,0,1-14.65,0c-1.92-.64-2.88-1.47-3-2.31l0,.41c0,.9,1,1.79,3,2.48a27,27,0,0,0,14.65,0c2-.68,3-1.56,3-2.45h.06l-.06-.57C265.78,551.06,264.77,551.94,262.76,552.62Zm42.56.16a18,18,0,0,1-9.76,0c-1.24-.42-1.88-.94-2-1.48l0,.41c0,.6.65,1.19,2,1.64a18,18,0,0,0,9.76,0c1.34-.44,2-1,2-1.61h0l-.05-.53C307.29,551.77,306.63,552.34,305.32,552.78Z"/></g><path class="cls-11" d="M263.65,408.53a6.81,6.81,0,1,0,6.8,6.81A6.8,6.8,0,0,0,263.65,408.53Zm0,10.22a3.41,3.41,0,1,1,3.4-3.41A3.41,3.41,0,0,1,263.65,418.75ZM266.2,383a9.37,9.37,0,0,0,0,18.73h0a9.37,9.37,0,0,0,0-18.73Zm0,15.32a6,6,0,1,1-.2-11.91h.2a6,6,0,0,1,0,11.91Zm18.72,1.7a9.37,9.37,0,0,0,0,18.73h0a9.37,9.37,0,0,0,0-18.73Zm0,15.32a6,6,0,1,1,6-5.95A5.95,5.95,0,0,1,284.92,415.34Z"/><text class="cls-12" transform="translate(427.26 405.34)"> </text><path class="cls-5" d="M490.29,545.59c-4.05,1.8-11.7,3.3-20.4,3.3-23.69,0-38.84-14.4-38.84-37.5,0-21.45,14.7-39,42-39a52.89,52.89,0,0,1,17.4,2.85l-3.6,16.95c-2.7-1.2-6.75-2.25-12.75-2.25-12,0-19.79,8.55-19.64,20.55,0,13.5,9,20.55,20.09,20.55a35.17,35.17,0,0,0,13-2.25Z"/><path class="cls-5" d="M502.75,527.44c4.19,2.55,12.89,5.55,19.64,5.55s9.75-2.4,9.75-6.15-2.25-5.55-10.8-8.4c-15.15-5.1-21-13.35-20.84-22.05,0-13.65,11.69-24,29.84-24,8.55,0,16.2,1.95,20.7,4.2l-4,15.75a36,36,0,0,0-15.9-4.2c-5.55,0-8.7,2.25-8.7,6,0,3.45,2.85,5.25,11.85,8.4,14,4.8,19.8,11.85,20,22.65,0,13.65-10.8,23.7-31.8,23.7-9.6,0-18.14-2.1-23.69-5.1Z"/><path class="cls-5" d="M567.84,527.44C572,530,580.74,533,587.49,533s9.75-2.4,9.75-6.15-2.25-5.55-10.8-8.4c-15.15-5.1-21-13.35-20.85-22.05,0-13.65,11.7-24,29.85-24,8.55,0,16.2,1.95,20.7,4.2l-4,15.75a36,36,0,0,0-15.9-4.2c-5.55,0-8.7,2.25-8.7,6,0,3.45,2.85,5.25,11.85,8.4,13.95,4.8,19.8,11.85,19.95,22.65,0,13.65-10.8,23.7-31.8,23.7-9.6,0-18.15-2.1-23.7-5.1Z"/><path class="cls-13" d="M633.09,440.89h22.8v106.5h-22.8Z"/><path class="cls-13" d="M716,547.39,714.69,540h-.45c-4.8,5.85-12.3,9-21,9-14.85,0-23.7-10.8-23.7-22.5,0-19,17.1-28.2,43.05-28v-1.05c0-3.9-2.1-9.45-13.35-9.45A41.25,41.25,0,0,0,679,493.54l-4.2-14.7c5.1-2.85,15.15-6.45,28.5-6.45,24.45,0,32.25,14.4,32.25,31.65v25.5c0,7.05.3,13.8,1.05,17.85Zm-2.7-34.65c-12-.15-21.3,2.7-21.3,11.55,0,5.85,3.9,8.7,9,8.7a12.46,12.46,0,0,0,11.85-8.4,16.35,16.35,0,0,0,.45-3.9Z"/><path class="cls-13" d="M752.94,547.39c.3-4.8.6-13.65.6-21.9v-84.6h22.8v41.85h.3c4.35-6.3,12-10.35,22.2-10.35,17.55,0,30.45,14.55,30.3,37.05,0,26.4-16.8,39.6-33.6,39.6-8.55,0-16.8-3.15-22-11.85h-.3l-.9,10.2Zm23.4-31.2a16.73,16.73,0,0,0,.45,4A13.8,13.8,0,0,0,790.14,531c9.75,0,15.75-7.5,15.75-20.7,0-11.4-5.1-20.4-15.75-20.4-6.15,0-11.85,4.65-13.35,11.25a19,19,0,0,0-.45,4.2Z"/></svg>